<svg aria-hidden="true" style="position: absolute; width: 0; height: 0; overflow: hidden;" version="1.1" xmlns="http://www.w3.org/2000/svg" xmlns:xlink="http://www.w3.org/1999/xlink">
<defs>
<symbol id="icon-burger" viewBox="0 0 32 32">
<path  d="M28 7h-24c-0.551-0.004-0.997-0.449-1-1v-0c0-0.546 0.454-1 1-1h24c0.546 0 1 0.454 1 1-0.004 0.551-0.449 0.997-1 1h-0zM28 13.666h-12.627c-0.55-0.004-0.995-0.449-1-0.999v-0c0-0.546 0.453-1 1-1h12.627c0.546 0 1 0.453 1 1-0.004 0.551-0.449 0.997-1 1h-0zM28 20.333h-24c-0.551-0.004-0.996-0.449-1-0.999v-0c0-0.547 0.454-1 1-1h24c0.546 0 1 0.454 1 1-0.004 0.551-0.45 0.996-1 1h-0zM28 27h-12.627c-0.551-0.004-0.996-0.45-1-1v-0c0-0.546 0.453-1 1-1h12.627c0.546 0 1 0.454 1 1-0.004 0.551-0.449 0.997-1 1h-0z"></path>
</symbol>
</defs>
</svg>
